<svg width="24" height="24" xmlns="http://www.w3.org/2000/svg">

 <g>
  <title>background</title>
  <rect fill="none" id="canvas_background" height="402" width="582" y="-1" x="-1"/>
 </g>
 <g>
  <title>Layer 1</title>
  <path fill="#00b074" id="svg_1" d="m12,0c-6.6,0 -12,5.4 -12,12c0,6.6 5.4,12 12,12s12,-5.4 12,-12c0,-6.6 -5.4,-12 -12,-12zm0,21c-5,0 -9,-4 -9,-9c0,-5 4,-9 9,-9s9,4 9,9c0,5 -4,9 -9,9z"/>
  <path fill="#00b074" id="svg_2" d="m14,11.2l0,-4.2c0,-1.1 -0.9,-2 -2,-2s-2,0.9 -2,2l0,5c0,0.5 0.2,1 0.6,1.4l3,3c0.4,0.4 0.9,0.6 1.4,0.6s1,-0.2 1.4,-0.6c0.8,-0.8 0.8,-2 0,-2.8l-2.4,-2.4z"/>
 </g>
</svg>