<svg width="56.69299999999999" height="56.69299999999999" xmlns="http://www.w3.org/2000/svg">

 <g>
  <title>background</title>
  <rect fill="none" id="canvas_background" height="402" width="582" y="-1" x="-1"/>
 </g>
 <g>
  <title>Layer 1</title>
  <path fill="#ffffff" id="svg_1" d="m28.348,5.158c-13.6,0 -24.625,11.023 -24.625,24.623c0,13.6 11.025,24.625 24.625,24.625c13.598,0 24.623,-11.025 24.623,-24.625c0,-13.6 -11.026,-24.623 -24.623,-24.623zm-3.335,36.325l-11.248,-1.629l0,-9.131l11.248,0l0,10.76zm0,-12.296l-11.248,0l0,-9.132l11.248,-1.629l0,10.761zm16.629,14.705l-15.091,-2.186l0,-10.982l15.091,0l0,13.168zm0,-14.705l-15.091,0l0,-10.985l15.091,-2.185l0,13.17z"/>
 </g>
</svg>