<svg width="24" height="24" xmlns="http://www.w3.org/2000/svg">
 <title/>

 <g>
  <title>background</title>
  <rect fill="none" id="canvas_background" height="402" width="582" y="-1" x="-1"/>
 </g>
 <g>
  <title>Layer 1</title>
  <path id="svg_1" fill="#00b074" d="m18,4l-1,0l0,-1a1,1 0 0 0 -2,0l0,1l-6,0l0,-1a1,1 0 0 0 -2,0l0,1l-1,0a3,3 0 0 0 -3,3l0,11a3,3 0 0 0 3,3l12,0a3,3 0 0 0 3,-3l0,-11a3,3 0 0 0 -3,-3zm-10,14a1,1 0 1 1 1,-1a1,1 0 0 1 -1,1zm0,-4a1,1 0 1 1 1,-1a1,1 0 0 1 -1,1zm4,4a1,1 0 1 1 1,-1a1,1 0 0 1 -1,1zm0,-4a1,1 0 1 1 1,-1a1,1 0 0 1 -1,1zm4,0a1,1 0 1 1 1,-1a1,1 0 0 1 -1,1zm3,-4l-14,0l0,-3a1,1 0 0 1 1,-1l1,0l0,1a1,1 0 0 0 2,0l0,-1l6,0l0,1a1,1 0 0 0 2,0l0,-1l1,0a1,1 0 0 1 1,1l0,3z"/>
 </g>
</svg>